PathFileType	4	(X/Y/Z)	c:/Users/goper/Files/vsCode/490R/osim_files/C12/C12_Static.trc
DataRate	CameraRate	NumFrames	NumMarkers	Units                	OrigDataRate	OrigDataStartFrame	OrigNumFrames
120.00	120.00	4	36	mm	120.0	1	812
                Frame#	Time	LPSIS			LASIS			LTH1			LTH2			LTH3			LTH4			LLFE			LMFE			LSH1			LSH2			LSH3			LSH4			LLMAL			LMMAL			LCAL			LMTP5			LTOE			LMTP1			RPSIS			RASIS			RTH1			RTH2			RTH3			RTH4			RLFE			RMFE			RSH1			RSH2			RSH3			RSH4			RLMAL			RMMAL			RCAL			RMTP1			RTOE			RMTP5		
		X1	Y1	Z1	X2	Y2	Z2	X3	Y3	Z3	X4	Y4	Z4	X5	Y5	Z5	X6	Y6	Z6	X7	Y7	Z7	X8	Y8	Z8	X9	Y9	Z9	X10	Y10	Z10	X11	Y11	Z11	X12	Y12	Z12	X13	Y13	Z13	X14	Y14	Z14	X15	Y15	Z15	X16	Y16	Z16	X17	Y17	Z17	X18	Y18	Z18	X19	Y19	Z19	X20	Y20	Z20	X21	Y21	Z21	X22	Y22	Z22	X23	Y23	Z23	X24	Y24	Z24	X25	Y25	Z25	X26	Y26	Z26	X27	Y27	Z27	X28	Y28	Z28	X29	Y29	Z29	X30	Y30	Z30	X31	Y31	Z31	X32	Y32	Z32	X33	Y33	Z33	X34	Y34	Z34	X35	Y35	Z35	X36	Y36	Z36

1	0.00000	-356.09229	1062.32324	433.05090	-177.47057	1032.71765	368.03165	-303.49307	762.51605	303.56512	-302.08224	717.97662	301.71432	-242.13620	761.39398	293.07733	-248.83734	716.46234	292.71777	-287.72623	534.92834	320.75964	-274.78867	513.49475	444.12305	-353.72388	445.87729	297.24136	-350.45428	399.78958	283.30673	-293.23792	445.35580	295.29462	-298.76093	398.98975	285.28671	-312.05762	102.63916	285.27881	-290.47473	103.06280	360.99783	-367.12741	72.33966	326.27539	-181.04922	40.04261	239.53899	-122.25339	70.65733	301.10074	-147.17419	41.92861	346.17191	-364.63828	1060.37708	543.18457	-180.11375	1026.77356	629.95367	-293.35541	763.19458	699.81549	-290.89136	717.53552	695.32031	-230.25528	759.17877	698.56738	-238.43225	711.99634	695.59351	-303.28030	536.49786	672.71307	-291.32672	520.55188	540.12781	-372.13495	441.77475	697.19482	-368.92224	399.61093	708.56226	-309.52542	438.52744	698.42078	-317.17203	397.82803	711.19800	-331.51865	102.04968	701.41925	-307.71121	112.67335	621.73730	-396.01678	62.92626	658.05865	-178.49307	47.62572	632.40173	-140.64438	67.87296	668.33704	-178.45967	41.47228	739.32526
2	0.00833	-356.09506	1062.33667	433.04413	-177.42406	1032.71399	368.02014	-303.52893	762.51477	303.57751	-302.11954	717.97461	301.71576	-242.13124	761.38232	293.08105	-248.84732	716.45197	292.73474	-287.75565	534.91754	320.78674	-274.76965	513.50507	444.10580	-353.75266	445.86435	297.24454	-350.47064	399.79633	283.31775	-293.23154	445.35864	295.30203	-298.75143	398.99631	285.28241	-312.08685	102.63274	285.30270	-290.42282	103.04198	360.98792	-367.10120	72.24715	326.33572	-181.06860	40.02377	239.54671	-122.22844	70.64120	301.10046	-147.09946	41.93262	346.17288	-364.63348	1060.37500	543.17847	-180.09065	1026.77332	629.95465	-293.33560	763.16132	699.81238	-290.85345	717.49249	695.29578	-230.19853	759.18054	698.53723	-238.39821	711.97321	695.57111	-303.25360	536.46265	672.70050	-291.35251	520.54004	540.11456	-372.11688	441.74789	697.18750	-368.87558	399.56909	708.55725	-309.47516	438.51392	698.39825	-317.15942	397.80597	711.19305	-331.48193	102.01055	701.41693	-307.72089	112.65074	621.74170	-396.03690	62.91695	658.08521	-178.44568	47.62500	632.41565	-140.63664	67.87376	668.34283	-178.45547	41.45478	739.33899
3	0.01667	-356.10751	1062.36218	433.04034	-177.40195	1032.68298	368.05420	-303.55063	762.49200	303.59912	-302.12006	717.97418	301.72345	-242.11421	761.39191	293.07941	-248.84990	716.44440	292.74640	-287.76102	534.92694	320.78043	-274.78406	513.50830	444.09604	-353.76987	445.85583	297.23914	-350.48950	399.78439	283.32053	-293.23648	445.36090	295.30139	-298.72922	399.03445	285.27213	-312.09320	102.63001	285.30667	-290.42844	102.98494	361.00330	-367.05780	72.11579	326.43073	-180.91435	40.22409	239.40869	-122.19320	70.63673	301.13214	-147.08435	41.87693	346.20425	-364.65106	1060.40881	543.15723	-180.09735	1026.73425	629.98505	-293.31119	763.09277	699.83234	-290.87860	717.39966	695.30652	-230.18506	759.16833	698.55939	-238.39822	711.94073	695.56763	-303.27808	536.37201	672.70459	-291.33536	520.54163	540.12476	-372.11261	441.70422	697.20135	-368.86224	399.53247	708.58868	-309.46466	438.48059	698.40985	-317.18228	397.76779	711.20581	-331.45102	101.97135	701.46106	-307.70569	112.63949	621.75348	-396.05630	62.90479	658.08411	-178.42230	47.61668	632.45056	-140.61139	67.85342	668.36566	-178.45679	41.40446	739.37469
4	0.02500	-356.06241	1062.36938	433.01874	-177.44675	1032.61511	368.09641	-303.52225	762.46552	303.59338	-302.09933	717.95972	301.69052	-242.10222	761.40289	293.07068	-248.84711	716.44135	292.73056	-287.76700	534.91034	320.76685	-274.80533	513.50995	444.09457	-353.78952	445.83325	297.22852	-350.49026	399.78387	283.31036	-293.23813	445.37042	295.28949	-298.74054	399.03525	285.26230	-312.08856	102.61629	285.31390	-290.48645	102.93123	361.03238	-367.11841	71.91911	326.56088	-180.96468	40.14453	239.46030	-122.20924	70.58105	301.17578	-147.15221	41.81590	346.24567	-364.61057	1060.44250	543.11829	-180.14017	1026.68835	630.00806	-293.32507	763.05603	699.84070	-290.90103	717.34430	695.32306	-230.27176	759.10516	698.60162	-238.44928	711.90747	695.60577	-303.33472	536.32544	672.74579	-291.34848	520.55658	540.11230	-372.15320	441.67322	697.21588	-368.87427	399.48276	708.63104	-309.53040	438.41653	698.46564	-317.26230	397.71289	711.24609	-331.48630	101.94342	701.48132	-307.72824	112.64040	621.74542	-396.12338	62.85572	658.17969	-178.42633	47.57017	632.49451	-140.62006	67.82001	668.40137	-178.50877	41.34490	739.40717
